<svg id="Layer_1" xmlns="http://www.w3.org/2000/svg" viewBox="0 0 14 18.3"><style>.st0{fill:#c20000}.st1{fill:#fff}.st2{fill:#f38c8b}</style><path class="st0" d="M12.6 18.3H1.4c-.8 0-1.4-.6-1.4-1.4V1.4C0 .6.6 0 1.4 0h8.1L14 4.5v12.4c0 .8-.6 1.4-1.4 1.4z"/><path class="st1" d="M2.6 10h.7v.5c.1-.2.2-.3.4-.4.2-.1.4-.1.6-.1.3 0 .6.1.9.4.2.3.4.7.4 1.2s-.1.9-.4 1.2-.5.4-.9.4c-.2 0-.3 0-.5-.1-.1-.1-.3-.2-.4-.3v1.6h-.8V10zm.8 1.5c0 .3.1.6.2.8.1.2.3.2.5.2s.3-.1.5-.2.2-.4.2-.7c0-.3-.1-.6-.2-.7-.1-.2-.3-.2-.5-.2s-.4.1-.5.2c-.1.1-.2.3-.2.6zM9 13.1h-.8v-.5c-.1.2-.3.3-.4.4s-.3.1-.5.1c-.3 0-.6-.1-.9-.4s-.4-.6-.4-1.1c0-.5.1-.9.4-1.2.2-.3.5-.4.9-.4.3 0 .6.1.9.4V8.8H9v4.3zm-2.2-1.6c0 .3 0 .6.1.7.1.2.3.3.5.3s.3-.1.5-.2c.1-.2.2-.4.2-.7 0-.4-.1-.6-.2-.8s-.3-.2-.5-.2-.3.1-.5.2-.1.4-.1.7zM9.4 10h.4v-.2c0-.3 0-.5.1-.6l.3-.3c.1-.1.3-.1.5-.1s.4 0 .7.1l-.1.6h-.4c-.1 0-.2 0-.2.1s-.1.2-.1.3v.1h.6v.6h-.6V13h-.8v-2.4h-.4V10z"/><path class="st2" d="M8.9 0v3.5c0 .6.1 1 .3 1.2.3.4.6.4 1 .4H14v-.7L9.6 0h-.7z"/></svg>